<svg xmlns="http://www.w3.org/2000/svg" width="25" height="25" fill="none" viewBox="0 0 25 25">
  <g clip-path="url(#clip0_1180_21773)">
    <path fill="#4285F4" d="M24.392 12.734c0-1.024-.083-1.772-.263-2.547H12.445v4.623h6.858c-.138 1.149-.884 2.879-2.544 4.042l-.023.154 3.694 2.865.256.026c2.35-2.173 3.706-5.37 3.706-9.163z"/>
    <path fill="#34A853" d="M12.445 24.914c3.36 0 6.181-1.107 8.241-3.017l-3.927-3.045c-1.05.733-2.46 1.245-4.314 1.245-3.29 0-6.083-2.173-7.079-5.176l-.146.012L1.38 17.91l-.05.14c2.046 4.07 6.25 6.865 11.117 6.865z"/>
    <path fill="#FBBC05" d="M5.366 14.92a7.676 7.676 0 01-.415-2.463c0-.858.152-1.689.401-2.464l-.007-.165-3.889-3.023-.127.06A12.48 12.48 0 000 12.457c0 2.007.484 3.903 1.328 5.592l4.037-3.128z"/>
    <path fill="#EB4335" d="M12.445 4.817c2.337 0 3.913 1.01 4.812 1.854L20.77 3.24C18.612 1.232 15.805 0 12.446 0 7.577 0 3.374 2.796 1.328 6.865l4.023 3.128c1.01-3.003 3.803-5.176 7.093-5.176z"/>
  </g>
  <defs>
    <clipPath id="clip0_1180_21773">
      <path fill="#fff" d="M0 0h24.405v25H0z"/>
    </clipPath>
  </defs>
</svg>
