<svg width="17" height="22" viewBox="0 0 17 22" fill="none" xmlns="http://www.w3.org/2000/svg">
<path d="M8.19999 16.3524C7.07249 16.3524 6.14999 15.4438 6.14999 14.3333C6.14999 13.2228 7.07249 12.3143 8.19999 12.3143C9.32749 12.3143 10.25 13.2228 10.25 14.3333C10.25 15.4438 9.32749 16.3524 8.19999 16.3524ZM2.04999 7.26666H3.07499V5.24761C3.07499 2.46132 5.37099 0.199989 8.19999 0.199989C11.029 0.199989 13.325 2.46132 13.325 5.24761H11.3775C11.3775 3.52132 9.95274 2.11808 8.19999 2.11808C6.44724 2.11808 5.02249 3.52132 5.02249 5.24761V7.26666H14.35C15.4775 7.26666 16.4 8.17523 16.4 9.2857V19.3809C16.4 20.4914 15.4775 21.4 14.35 21.4H2.04999C0.92249 21.4 -9.53674e-06 20.4914 -9.53674e-06 19.3809V9.2857C-9.53674e-06 8.17523 0.92249 7.26666 2.04999 7.26666ZM2.04999 19.3809H14.35V9.2857H2.04999V19.3809Z" fill="#32B768"/>
</svg>
