<svg xmlns="http://www.w3.org/2000/svg" width="172" height="162" fill="none" viewBox="0 0 172 162">
  <circle cx="85" cy="93" r="67" fill="#32B768"/>
  <circle cx="165.5" cy="32.5" r="6.5" fill="#32B768"/>
  <ellipse cx="10.5" cy="10" fill="#32B768" rx="10.5" ry="10"/>
  <ellipse cx="5" cy="136.5" fill="#32B768" rx="5" ry="5.5"/>
  <ellipse cx="153.5" cy="160" fill="#32B768" rx="2.5" ry="2"/>
  <path fill="#fff" d="M80.023 111.118c-1.421 0-2.842-.609-3.654-1.827L65.002 94.676c-1.624-2.03-1.218-4.871.812-6.495 2.03-1.624 4.872-1.218 6.495.812l7.714 9.946 17.05-22.125c1.624-2.03 4.466-2.436 6.496-.812 2.029 1.624 2.435 4.466.812 6.495l-20.705 26.794c-1.015 1.015-2.232 1.827-3.653 1.827z"/>
  <circle cx="113.5" cy="103.5" r="2.5" fill="#fff"/>
  <circle cx="48" cy="76" r="4" fill="#fff"/>
  <circle cx="106.5" cy="54.5" r="1.5" fill="#fff"/>
  <circle cx="65" cy="125" r="2" fill="#fff"/>
  <circle cx="87" cy="77" r="1" fill="#fff"/>
</svg>
